# xmcd CD database file
#
# Track frame offsets:
#	150
#	25205
#	38290
#	59025
#	87842
#	111855
#	123077
#	140660
#	158847
#	177312
#
# Disc length: 2714 seconds
#
# Revision: 0
# Processed by: cddbd v1.5PL3 Copyright (c) Steve Scherf et al.
# Submitted via: CDex 1.50
#
DISCID=7e0a980a
DTITLE=AURA - AURA
DYEAR=1992
DGENRE=Rock
TTITLE0=AFRICA
TTITLE1=Bad Girl〜君に夢中〜
TTITLE2=May Be〜ある少年たちのうた〜
TTITLE3=想い出が悲しみに変わる季節（とき）
TTITLE4=ある夏の日の詩
TTITLE5=Sherry
TTITLE6=Don't Worry
TTITLE7=暗闇を駆け抜けろ
TTITLE8=She's Gone
TTITLE9=THE END
EXTD=YEAR: 1992
EXTT0=
EXTT1=
EXTT2=
EXTT3=
EXTT4=
EXTT5=
EXTT6=
EXTT7=
EXTT8=
EXTT9=
PLAYORDER=
